<?xml version="1.0" encoding="UTF-8"?>
<svg xmlns="http://www.w3.org/2000/svg" version="1.1" width="100" height="100" viewBox="0 0 100 100"><rect x="0" y="0" width="100" height="100" fill="#ffffff"/><g transform="scale(4.762)"><g transform="translate(0,0)"><path fill-rule="evenodd" d="M9 0L9 1L8 1L8 3L9 3L9 4L8 4L8 8L6 8L6 9L7 9L7 10L6 10L6 11L5 11L5 12L3 12L3 13L5 13L5 12L6 12L6 13L7 13L7 12L6 12L6 11L8 11L8 15L9 15L9 17L8 17L8 18L9 18L9 17L12 17L12 18L11 18L11 19L8 19L8 21L12 21L12 20L11 20L11 19L13 19L13 20L14 20L14 21L16 21L16 20L17 20L17 21L18 21L18 20L17 20L17 19L19 19L19 18L20 18L20 19L21 19L21 17L19 17L19 18L18 18L18 17L17 17L17 16L16 16L16 17L12 17L12 16L13 16L13 15L17 15L17 14L18 14L18 13L17 13L17 12L18 12L18 11L19 11L19 10L20 10L20 11L21 11L21 9L20 9L20 8L18 8L18 9L19 9L19 10L17 10L17 8L14 8L14 9L13 9L13 8L11 8L11 6L10 6L10 7L9 7L9 4L10 4L10 0ZM12 0L12 1L11 1L11 2L12 2L12 3L11 3L11 5L12 5L12 3L13 3L13 2L12 2L12 1L13 1L13 0ZM12 6L12 7L13 7L13 6ZM0 8L0 12L2 12L2 11L4 11L4 10L5 10L5 9L4 9L4 8L3 8L3 9L2 9L2 8ZM8 8L8 9L9 9L9 10L8 10L8 11L9 11L9 13L10 13L10 16L11 16L11 15L12 15L12 14L11 14L11 13L13 13L13 14L15 14L15 13L16 13L16 14L17 14L17 13L16 13L16 12L17 12L17 10L15 10L15 9L14 9L14 10L15 10L15 13L13 13L13 12L14 12L14 11L13 11L13 12L11 12L11 10L10 10L10 9L9 9L9 8ZM1 9L1 10L2 10L2 9ZM3 9L3 10L4 10L4 9ZM10 12L10 13L11 13L11 12ZM20 12L20 13L21 13L21 12ZM19 14L19 15L20 15L20 16L21 16L21 15L20 15L20 14ZM13 18L13 19L14 19L14 20L15 20L15 19L14 19L14 18ZM19 20L19 21L20 21L20 20ZM0 0L0 7L7 7L7 0ZM1 1L1 6L6 6L6 1ZM2 2L2 5L5 5L5 2ZM14 0L14 7L21 7L21 0ZM15 1L15 6L20 6L20 1ZM16 2L16 5L19 5L19 2ZM0 14L0 21L7 21L7 14ZM1 15L1 20L6 20L6 15ZM2 16L2 19L5 19L5 16Z" fill="#000000"/></g></g></svg>
