<?xml version="1.0" encoding="UTF-8"?>
<svg xmlns="http://www.w3.org/2000/svg" version="1.1" width="100" height="100" viewBox="0 0 100 100"><rect x="0" y="0" width="100" height="100" fill="#ffffff"/><g transform="scale(4.762)"><g transform="translate(0,0)"><path fill-rule="evenodd" d="M8 0L8 1L9 1L9 2L8 2L8 5L12 5L12 3L13 3L13 0L12 0L12 3L11 3L11 2L10 2L10 0ZM9 2L9 4L11 4L11 3L10 3L10 2ZM8 6L8 7L9 7L9 8L8 8L8 9L7 9L7 8L6 8L6 9L4 9L4 8L0 8L0 9L4 9L4 10L6 10L6 11L7 11L7 12L6 12L6 13L8 13L8 14L9 14L9 16L10 16L10 14L11 14L11 15L12 15L12 14L13 14L13 13L14 13L14 15L13 15L13 16L12 16L12 18L11 18L11 17L10 17L10 18L9 18L9 17L8 17L8 21L11 21L11 20L10 20L10 19L13 19L13 20L12 20L12 21L16 21L16 20L15 20L15 19L13 19L13 18L14 18L14 15L17 15L17 16L16 16L16 17L17 17L17 19L19 19L19 18L20 18L20 16L21 16L21 15L20 15L20 16L19 16L19 14L18 14L18 13L16 13L16 12L18 12L18 11L15 11L15 10L19 10L19 11L20 11L20 12L21 12L21 8L20 8L20 10L19 10L19 8L16 8L16 9L15 9L15 10L14 10L14 11L15 11L15 13L14 13L14 12L13 12L13 11L11 11L11 12L10 12L10 11L9 11L9 10L11 10L11 6L10 6L10 7L9 7L9 6ZM12 6L12 7L13 7L13 6ZM9 8L9 9L8 9L8 10L7 10L7 9L6 9L6 10L7 10L7 11L8 11L8 10L9 10L9 9L10 9L10 8ZM13 8L13 9L14 9L14 8ZM0 10L0 11L2 11L2 12L3 12L3 13L5 13L5 11L2 11L2 10ZM0 12L0 13L1 13L1 12ZM11 12L11 13L13 13L13 12ZM15 13L15 14L16 14L16 13ZM20 13L20 14L21 14L21 13ZM18 17L18 18L19 18L19 17ZM20 19L20 20L21 20L21 19ZM18 20L18 21L19 21L19 20ZM0 0L0 7L7 7L7 0ZM1 1L1 6L6 6L6 1ZM2 2L2 5L5 5L5 2ZM14 0L14 7L21 7L21 0ZM15 1L15 6L20 6L20 1ZM16 2L16 5L19 5L19 2ZM0 14L0 21L7 21L7 14ZM1 15L1 20L6 20L6 15ZM2 16L2 19L5 19L5 16Z" fill="#000000"/></g></g></svg>
