<?xml version="1.0" encoding="UTF-8"?>
<svg xmlns="http://www.w3.org/2000/svg" version="1.1" width="100" height="100" viewBox="0 0 100 100"><rect x="0" y="0" width="100" height="100" fill="#ffffff"/><g transform="scale(4.762)"><g transform="translate(0,0)"><path fill-rule="evenodd" d="M8 0L8 1L9 1L9 2L8 2L8 5L11 5L11 4L12 4L12 3L13 3L13 0L12 0L12 3L11 3L11 2L10 2L10 0ZM9 2L9 4L11 4L11 3L10 3L10 2ZM8 6L8 7L9 7L9 8L8 8L8 9L7 9L7 8L6 8L6 9L7 9L7 10L6 10L6 11L7 11L7 12L6 12L6 13L8 13L8 14L9 14L9 13L10 13L10 12L11 12L11 13L12 13L12 12L13 12L13 9L14 9L14 8L13 8L13 9L12 9L12 12L11 12L11 11L10 11L10 10L11 10L11 6L10 6L10 7L9 7L9 6ZM12 6L12 7L13 7L13 6ZM0 8L0 12L1 12L1 13L5 13L5 9L4 9L4 8ZM9 8L9 9L8 9L8 10L9 10L9 9L10 9L10 8ZM16 8L16 10L15 10L15 12L14 12L14 13L13 13L13 14L14 14L14 15L11 15L11 14L10 14L10 15L11 15L11 17L10 17L10 18L9 18L9 17L8 17L8 21L9 21L9 20L10 20L10 21L14 21L14 20L15 20L15 17L14 17L14 18L13 18L13 19L12 19L12 18L11 18L11 17L12 17L12 16L14 16L14 15L16 15L16 16L17 16L17 17L16 17L16 18L17 18L17 17L18 17L18 19L17 19L17 20L16 20L16 21L17 21L17 20L18 20L18 21L19 21L19 20L18 20L18 19L19 19L19 18L20 18L20 17L19 17L19 14L21 14L21 13L20 13L20 11L21 11L21 8L20 8L20 10L19 10L19 8ZM2 9L2 10L1 10L1 12L4 12L4 11L2 11L2 10L4 10L4 9ZM16 10L16 11L18 11L18 12L16 12L16 13L15 13L15 14L16 14L16 13L18 13L18 14L19 14L19 10ZM8 11L8 12L9 12L9 11ZM20 15L20 16L21 16L21 15ZM10 19L10 20L11 20L11 19ZM13 19L13 20L14 20L14 19ZM20 19L20 20L21 20L21 19ZM0 0L0 7L7 7L7 0ZM1 1L1 6L6 6L6 1ZM2 2L2 5L5 5L5 2ZM14 0L14 7L21 7L21 0ZM15 1L15 6L20 6L20 1ZM16 2L16 5L19 5L19 2ZM0 14L0 21L7 21L7 14ZM1 15L1 20L6 20L6 15ZM2 16L2 19L5 19L5 16Z" fill="#000000"/></g></g></svg>
